<?xml version="1.0" encoding="utf-8"?>
<!-- Generator: Adobe Illustrator 18.1.1, SVG Export Plug-In . SVG Version: 6.00 Build 0)  -->
<svg version="1.1" id="Layer_1" xmlns="http://www.w3.org/2000/svg" xmlns:xlink="http://www.w3.org/1999/xlink" x="0px" y="0px"
	 viewBox="0 0 172.2 199.1" enable-background="new 0 0 172.2 199.1" xml:space="preserve">
<g>
	<polygon fill="#64A8C5" points="86.1,0 0,49.7 86.1,99.4 172.2,49.7 	"/>
	<polygon fill="#1B5768" points="86.1,199.1 0,149.1 0,49.7 86.1,99.4 	"/>
	<polygon fill="#3485A0" points="172.1,149.2 86.1,199.1 86.1,99.4 172.2,49.7 	"/>
	<path fill="#3485A0" d="M104.4,39.3c-0.9,1.4-2.3,2.6-4.1,3.7c-3.6-2.2-8.6-3.5-14.2-3.5s-10.6,1.4-14.2,3.5
		c-1.8-1.1-3.2-2.3-4.1-3.7c-0.9-1.3-1.3-2.7-1.3-4.1v15.6c0,1.5,0.5,2.8,1.3,4.1c2.9,4.2,10,7.2,18.3,7.2s15.5-3,18.3-7.2
		c0.9-1.3,1.3-2.7,1.3-4.1V35.2C105.7,36.7,105.3,38.1,104.4,39.3z"/>
	<path fill="#42C4EC" d="M86.1,23.9c-10.9,0-19.7,5.1-19.7,11.4c0,1.5,0.5,2.8,1.3,4.1c2.9,4.2,10,7.2,18.3,7.2s15.5-3,18.3-7.2
		c0.9-1.3,1.3-2.7,1.3-4.1C105.7,29,96.9,23.9,86.1,23.9z"/>
</g>
</svg>
