<svg xmlns="http://www.w3.org/2000/svg" xmlns:x="http://www.w3.org/1999/xlink" xml:space="preserve">
    <defs>
        <symbol id="block1" viewBox="0 0 172.2 199.1">
            <polygon fill="#64A8C5" points="86.1,0 0,49.7 86.1,99.4 172.2,49.7"/>
            <polygon fill="#1B5768" points="86.1,199.1 0,149.1 0,49.7 86.1,99.4"/>
            <polygon fill="#3485A0" points="172.1,149.2 86.1,199.1 86.1,99.4 172.2,49.7"/>
            <path fill="#3485A0" d="M104.4,39.3c-0.9,1.4-2.3,2.6-4.1,3.7c-3.6-2.2-8.6-3.5-14.2-3.5s-10.6,1.4-14.2,3.5 c-1.8-1.1-3.2-2.3-4.1-3.7c-0.9-1.3-1.3-2.7-1.3-4.1v15.6c0,1.5,0.5,2.8,1.3,4.1c2.9,4.2,10,7.2,18.3,7.2s15.5-3,18.3-7.2 c0.9-1.3,1.3-2.7,1.3-4.1V35.2C105.7,36.7,105.3,38.1,104.4,39.3z"/>
            <path fill="#42C4EC" d="M86.1,23.9c-10.9,0-19.7,5.1-19.7,11.4c0,1.5,0.5,2.8,1.3,4.1c2.9,4.2,10,7.2,18.3,7.2s15.5-3,18.3-7.2 c0.9-1.3,1.3-2.7,1.3-4.1C105.7,29,96.9,23.9,86.1,23.9z"/>
        </symbol>

        <symbol id="block2" viewBox="0 0 287.1 298.3">
            <g>
                <polygon fill="#64A8C5" points="143.5,0 0,82.9 143.5,165.7 287.1,82.9"/>
                <polygon fill="#1B5768" points="143.5,298.3 0,215.5 0,82.9 143.5,165.7"/>
                <polygon fill="#3485A0" points="287.1,215.5 143.5,298.3 143.5,165.7 287.1,82.9"/>
            </g>
            <path fill="#3485A0" d="M161.5,39c-0.9,1.4-2.3,2.6-4.1,3.7c-3.6-2.2-8.6-3.5-14.2-3.5s-10.6,1.4-14.2,3.5 c-1.8-1.1-3.2-2.3-4.1-3.7c-0.9-1.3-1.3-2.7-1.3-4.1v15.6c0,1.5,0.5,2.8,1.3,4.1c2.9,4.2,10,7.2,18.3,7.2s15.5-3,18.3-7.2 c0.9-1.3,1.3-2.7,1.3-4.1V34.9C162.8,36.3,162.3,37.7,161.5,39z"/>
            <path fill="#42C4EC" d="M143.1,23.5c-10.9,0-19.7,5.1-19.7,11.4c0,1.5,0.5,2.8,1.3,4.1c2.9,4.2,10,7.2,18.3,7.2s15.5-3,18.3-7.2 c0.9-1.3,1.3-2.7,1.3-4.1C162.8,28.6,154,23.5,143.1,23.5z"/>
            <path fill="#3485A0" d="M105,71.6c-0.9,1.4-2.3,2.6-4.1,3.7c-3.6-2.2-8.6-3.5-14.2-3.5S76,73.1,72.4,75.3 c-1.8-1.1-3.2-2.3-4.1-3.7c-0.9-1.3-1.3-2.7-1.3-4.1v15.6c0,1.5,0.5,2.8,1.3,4.1c2.9,4.2,10,7.2,18.3,7.2s15.5-3,18.3-7.2 c0.9-1.3,1.3-2.7,1.3-4.1V67.5C106.3,68.9,105.8,70.3,105,71.6z"/>
            <path fill="#42C4EC" d="M86.6,56.1C75.8,56.1,67,61.2,67,67.5c0,1.5,0.5,2.8,1.3,4.1c2.9,4.2,10,7.2,18.3,7.2s15.5-3,18.3-7.2 c0.9-1.3,1.3-2.7,1.3-4.1C106.3,61.2,97.5,56.1,86.6,56.1z"/>
            <path fill="#3485A0" d="M219,72.2c-0.9,1.4-2.3,2.6-4.1,3.7c-3.6-2.2-8.6-3.5-14.2-3.5s-10.6,1.4-14.2,3.5 c-1.8-1.1-3.2-2.3-4.1-3.7c-0.9-1.3-1.3-2.7-1.3-4.1v15.6c0,1.5,0.5,2.8,1.3,4.1c2.9,4.2,10,7.2,18.3,7.2s15.5-3,18.3-7.2 c0.9-1.3,1.3-2.7,1.3-4.1V68.1C220.4,69.6,219.9,71,219,72.2z"/>
            <path fill="#42C4EC" d="M200.7,56.8c-10.9,0-19.7,5.1-19.7,11.4c0,1.5,0.5,2.8,1.3,4.1c2.9,4.2,10,7.2,18.3,7.2s15.5-3,18.3-7.2 c0.9-1.3,1.3-2.7,1.3-4.1C220.4,61.9,211.6,56.8,200.7,56.8z"/>
            <path fill="#3485A0" d="M162,104.8c-0.9,1.4-2.3,2.6-4.1,3.7c-3.6-2.2-8.6-3.5-14.2-3.5s-10.6,1.4-14.2,3.5 c-1.8-1.1-3.2-2.3-4.1-3.7c-0.9-1.3-1.3-2.7-1.3-4.1v15.6c0,1.5,0.5,2.8,1.3,4.1c2.9,4.2,10,7.2,18.3,7.2s15.5-3,18.3-7.2 c0.9-1.3,1.3-2.7,1.3-4.1v-15.6C163.3,102.1,162.8,103.5,162,104.8z"/>
            <path fill="#42C4EC" d="M143.7,89.3c-10.9,0-19.7,5.1-19.7,11.4c0,1.5,0.5,2.8,1.3,4.1c2.9,4.2,10,7.2,18.3,7.2s15.5-3,18.3-7.2 c0.9-1.3,1.3-2.7,1.3-4.1C163.3,94.4,154.5,89.3,143.7,89.3z"/>
        </symbol>

        <symbol id="plane" viewBox="0 0 631.5 397.8">
            <polygon fill="#222223" points="631.5,182.3 315.8,0 0,182.3 315.8,364.6"/>
            <polygon fill="#141819" points="0,215.4 0,215.4 315.8,397.8 315.8,397.8">
                <animate
                    attributeName="points"
                    dur="1000ms" 
                    to="0,182.3 0,215.4 315.8,397.8 315.8,364.6"
                    fill="freeze" />
            </polygon>
            <polygon fill="#1E1D1E" points="315.8,397.8 315.8,397.8 631.5,215.5 631.5,215.5">
                <animate
                    attributeName="points"
                    dur="1000ms" 
                    to="315.8,364.6 315.8,397.8 631.5,215.5 631.5,182.3"
                    fill="freeze" />
            </polygon>
        </symbol>

        <symbol id="shadow" viewBox="0 0 631.5 397.8">
            <polygon fill="#222223" points="631.5,182.3 315.8,0 0,182.3 315.8,364.6"/>
        </symbol>
    </defs>

    <g id="hole">
        <ellipse cx="155" cy="40" rx="120" ry="40" />
    </g>

    <g id="shadows">
        <use x="30" y="35" href="#shadow" width="250" height="300" />
    </g>

    <g id="planes">
        <use x="30" y="10" href="#plane" width="250" height="300" />
    </g>

    <g>
        <defs>
            <clipPath id="cubes-clip">
                <path d="m275,40l0,300l-240,0l0,-300q20,-60 120,-58.5t120,58.5z" />
            </clipPath>
        </defs>
        
        <g clip-path="url(#cubes-clip)">
            <g id="cubes">
                <g id="cube-1">
                    <use x="100" y="-45" href="#block2" width="114" />
                </g>
                <g id="cube-2">
                    <use x="75" y="-10" href="#block1" width="68" />
                </g>
                <g id="cube-3">
                    <use x="171" y="-10" href="#block1" width="68" />
                </g>
            </g>
        </g>
    </g>

</svg>