<svg width="640" height="480" xmlns="http://www.w3.org/2000/svg" xmlns:svg="http://www.w3.org/2000/svg" preserveAspectRatio="xMidYMid meet">
 <!-- Created with SVG-edit - http://svg-edit.googlecode.com/ -->
 <g>
  <title>Layer 1</title>
  <path id="frame" fill="#606161" d="m241.4,12.2c3,-1.7 5.5,-0.3 5.5,3.1l0.5,162.5c0,3.5 -2.5,7.7 -5.5,9.5l-221.6,128c-3,1.7 -5.5,0.3 -5.5,-3.1l-0.5,-162.5c0,-3.5 2.5,-7.7 5.5,-9.5l221.6,-128z"/>
  <g id="svg_3">
   <path id="svg_4" d="m239.6,23.2c0,-2.3 -0.4,-2.3 -1.7,-1.6c-0.5,0.3 -1.2,0.7 -2,1.2l-211.3,122c-0.8,0.5 -1.3,0.7 -1.7,0.9c-0.8,0.5 -0.5,0.6 -0.5,2.9l0.5,153.4c0,2.2 -0.3,2.7 0.5,2.3c0.3,-0.2 0.9,-0.6 1.7,-1l212,-122.4c0.8,-0.5 1.4,-0.8 1.8,-1c1,-0.6 1.1,-1 1.1,-3.2l-0.4,-153.5l0,122l0,-122z" fill="#11191A" class="screen"/>
  </g>
  <polygon id="svg_1" points="33.7,158.5 33.7,164.4 29.1,167.1 29,161.2" fill="#A2A75C" class="code line-0"/>
  <polygon id="svg_2" points="114.3,111.9 114.3,117.9 101.3,125.4 101.3,119.5" fill="#7D7E7E" class="code line-0"/>
  <polygon id="svg_5" points="156.9,87.3 156.9,93.2 119.6,114.8 119.6,108.9" fill="#7D7E7E" class="code line-0"/>
  <polygon id="svg_6" points="97.1,121.9 97.1,127.8 73.8,141.3 73.7,135.4" fill="#7D7E7E" class="code line-0"/>
  <polygon id="svg_7" points="69,138.1 69,144 37,162.5 36.9,156.6" fill="#C1426F" class="code line-0"/>
  <polygon id="svg_8" points="54.5,177.5 54.5,180.5 51.6,182.3 51.6,179.3" fill="#5CA6AB" class="code core"/>
  <polygon id="svg_9" points="62.4,177.2 62.4,180.2 52.9,185.6 52.9,182.6" fill="#5CA6AB" class="code core"/>
  <polygon id="svg_10" points="110.9,140.9 110.9,143.9 107.9,145.7 107.9,142.7" fill="#5CA6AB" class="code core"/>
  <polygon id="svg_11" points="109.6,133.6 109.6,136.6 100.2,142 100.1,139" fill="#5CA6AB" class="code core"/>
  <polygon id="svg_12" points="63.7,164.1 63.7,167.1 60.7,168.8 60.7,165.8" fill="#5CA6AB" class="code core"/>
  <polygon id="svg_13" points="75.8,157.1 75.8,160.1 72.8,161.8 72.8,158.8" fill="#5CA6AB" class="code core"/>
  <polygon id="svg_14" points="75.8,165.3 75.8,168.3 72.8,170 72.8,167" fill="#5CA6AB" class="code core"/>
  <polygon id="svg_15" points="110.9,136.9 110.9,139.9 107.9,141.6 107.9,138.6" fill="#5CA6AB" class="code core"/>
  <polygon id="svg_16" points="97.2,140.6 97.2,143.6 94.3,145.4 94.2,142.4" fill="#5CA6AB" class="code core"/>
  <polygon id="svg_17" points="97.2,148.8 97.3,151.8 94.3,153.5 94.3,150.5" fill="#5CA6AB" class="code core"/>
  <polygon id="svg_18" points="97.2,144.7 97.2,147.7 94.3,149.4 94.3,146.4" fill="#5CA6AB" class="code core"/>
  <polygon id="svg_19" points="110.9,145 110.9,148 107.9,149.7 107.9,146.7" fill="#5CA6AB" class="code core"/>
  <polygon id="svg_20" points="101.7,150.3 101.7,153.3 98.8,155 98.8,152" fill="#5CA6AB" class="code core"/>
  <polygon id="svg_21" points="97.3,156.9 97.3,159.9 94.3,161.7 94.3,158.7" fill="#5CA6AB" class="code core"/>
  <polygon id="svg_22" points="109.6,149.9 109.6,152.9 100.2,158.3 100.2,155.3" fill="#5CA6AB" class="code core"/>
  <polygon id="svg_23" points="101.7,146.2 101.7,149.2 98.8,150.9 98.7,147.9" fill="#5CA6AB" class="code core"/>
  <polygon id="svg_24" points="97.3,152.9 97.3,155.9 94.3,157.6 94.3,154.6" fill="#5CA6AB" class="code core"/>
  <polygon id="svg_25" points="92.6,159.6 92.6,162.6 89.6,164.4 89.6,161.4" fill="#5CA6AB" class="code core"/>
  <polygon id="svg_26" points="101.7,142.1 101.7,145.1 98.7,146.9 98.7,143.9" fill="#5CA6AB" class="code core"/>
  <polygon id="svg_27" points="88.1,162.3 88.1,165.3 77.3,171.5 77.3,168.5" fill="#5CA6AB" class="code core"/>
  <polygon id="svg_28" points="80.5,162.6 80.5,165.6 77.5,167.3 77.5,164.3" fill="#5CA6AB" class="code core"/>
  <polygon id="svg_29" points="75.8,169.3 75.8,172.3 72.8,174.1 72.8,171" fill="#5CA6AB" class="code core"/>
  <polygon id="svg_30" points="80.4,154.4 80.5,157.4 77.5,159.1 77.5,156.1" fill="#5CA6AB" class="code core"/>
  <polygon id="svg_31" points="68.2,173.7 68.2,176.7 65.2,178.5 65.2,175.5" fill="#5CA6AB" class="code core"/>
  <polygon id="svg_32" points="68.2,169.7 68.2,172.7 65.2,174.4 65.2,171.4" fill="#5CA6AB" class="code core"/>
  <polygon id="svg_33" points="74.3,162.1 74.3,165.1 64.9,170.6 64.8,167.6" fill="#5CA6AB" class="code core"/>
  <polygon id="svg_34" points="63.7,172.3 63.7,175.3 60.7,177 60.7,174" fill="#5CA6AB" class="code core"/>
  <polygon id="svg_35" points="68.1,161.5 68.1,164.5 65.2,166.2 65.2,163.3" fill="#5CA6AB" class="code core"/>
  <polygon id="svg_36" points="63.7,168.2 63.7,171.2 60.7,172.9 60.7,169.9" fill="#5CA6AB" class="code core"/>
  <polygon id="svg_37" points="74.3,154 74.3,157 64.8,162.4 64.8,159.4" fill="#5CA6AB" class="code core"/>
  <polygon id="svg_38" points="54.5,173.5 54.5,176.5 51.6,178.2 51.5,175.2" fill="#5CA6AB" class="code core"/>
  <polygon id="svg_39" points="115.1,155.1 115.2,156.5 35,202.7 35,201.4" fill="#5CA6AB" class="code core"/>
  <polygon id="svg_40" points="54.5,169.4 54.5,172.4 51.5,174.1 51.5,171.1" fill="#5CA6AB" class="code core"/>
  <polygon id="svg_41" points="50.1,184.3 50.1,187.3 40.6,192.7 40.6,189.7" fill="#5CA6AB" class="code core"/>
  <polygon id="svg_42" points="62.3,160.9 62.3,163.9 52.9,169.3 52.9,166.3" fill="#5CA6AB" class="code core"/>
  <polygon id="svg_43" points="42.2,184.6 42.2,187.6 39.3,189.4 39.2,186.4" fill="#5CA6AB" class="code core"/>
  <polygon id="svg_44" points="42.2,176.5 42.2,179.5 39.2,181.2 39.2,178.2" fill="#5CA6AB" class="code core"/>
  <polygon id="svg_45" points="50,168 50,171 40.6,176.4 40.6,173.4" fill="#5CA6AB" class="code core"/>
  <polygon id="svg_46" points="115.1,125.6 115.1,127 35,173.2 35,171.8" fill="#5CA6AB" class="code core"/>
  <polygon id="svg_47" points="85,155.9 85,158.9 77.5,163.3 77.5,160.3" fill="#5CA6AB" class="code core"/>
  <polygon id="svg_48" points="88.1,146 88.1,149 77.3,155.2 77.3,152.2" fill="#5CA6AB" class="code core"/>
  <polygon id="svg_49" points="42.2,180.6 42.2,183.6 39.2,185.3 39.2,182.3" fill="#5CA6AB" class="code core"/>
  <path fill="#11191A" stroke="#ff0000" d="m26.5,210l209.5,-118.5l2,89l-213,123l1.5,-93.5z" id="svg_50"/>
 </g>
</svg>