<?xml version="1.0" encoding="utf-8"?>
<!-- Generator: Adobe Illustrator 18.1.1, SVG Export Plug-In . SVG Version: 6.00 Build 0)  -->
<svg version="1.1" id="Layer_1" xmlns="http://www.w3.org/2000/svg" xmlns:xlink="http://www.w3.org/1999/xlink" x="0px" y="0px"
	 viewBox="0 0 287.1 298.3" enable-background="new 0 0 287.1 298.3" xml:space="preserve">
<g>
	<g>
		<polygon fill="#64A8C5" points="143.5,0 0,82.9 143.5,165.7 287.1,82.9 		"/>
		<polygon fill="#1B5768" points="143.5,298.3 0,215.5 0,82.9 143.5,165.7 		"/>
		<polygon fill="#3485A0" points="287.1,215.5 143.5,298.3 143.5,165.7 287.1,82.9 		"/>
	</g>
	<g>
		<path fill="#3485A0" d="M161.5,39c-0.9,1.4-2.3,2.6-4.1,3.7c-3.6-2.2-8.6-3.5-14.2-3.5s-10.6,1.4-14.2,3.5
			c-1.8-1.1-3.2-2.3-4.1-3.7c-0.9-1.3-1.3-2.7-1.3-4.1v15.6c0,1.5,0.5,2.8,1.3,4.1c2.9,4.2,10,7.2,18.3,7.2s15.5-3,18.3-7.2
			c0.9-1.3,1.3-2.7,1.3-4.1V34.9C162.8,36.3,162.3,37.7,161.5,39z"/>
		<path fill="#42C4EC" d="M143.1,23.5c-10.9,0-19.7,5.1-19.7,11.4c0,1.5,0.5,2.8,1.3,4.1c2.9,4.2,10,7.2,18.3,7.2s15.5-3,18.3-7.2
			c0.9-1.3,1.3-2.7,1.3-4.1C162.8,28.6,154,23.5,143.1,23.5z"/>
		<path fill="#3485A0" d="M105,71.6c-0.9,1.4-2.3,2.6-4.1,3.7c-3.6-2.2-8.6-3.5-14.2-3.5S76,73.1,72.4,75.3
			c-1.8-1.1-3.2-2.3-4.1-3.7c-0.9-1.3-1.3-2.7-1.3-4.1v15.6c0,1.5,0.5,2.8,1.3,4.1c2.9,4.2,10,7.2,18.3,7.2s15.5-3,18.3-7.2
			c0.9-1.3,1.3-2.7,1.3-4.1V67.5C106.3,68.9,105.8,70.3,105,71.6z"/>
		<path fill="#42C4EC" d="M86.6,56.1C75.8,56.1,67,61.2,67,67.5c0,1.5,0.5,2.8,1.3,4.1c2.9,4.2,10,7.2,18.3,7.2s15.5-3,18.3-7.2
			c0.9-1.3,1.3-2.7,1.3-4.1C106.3,61.2,97.5,56.1,86.6,56.1z"/>
		<path fill="#3485A0" d="M219,72.2c-0.9,1.4-2.3,2.6-4.1,3.7c-3.6-2.2-8.6-3.5-14.2-3.5s-10.6,1.4-14.2,3.5
			c-1.8-1.1-3.2-2.3-4.1-3.7c-0.9-1.3-1.3-2.7-1.3-4.1v15.6c0,1.5,0.5,2.8,1.3,4.1c2.9,4.2,10,7.2,18.3,7.2s15.5-3,18.3-7.2
			c0.9-1.3,1.3-2.7,1.3-4.1V68.1C220.4,69.6,219.9,71,219,72.2z"/>
		<path fill="#42C4EC" d="M200.7,56.8c-10.9,0-19.7,5.1-19.7,11.4c0,1.5,0.5,2.8,1.3,4.1c2.9,4.2,10,7.2,18.3,7.2s15.5-3,18.3-7.2
			c0.9-1.3,1.3-2.7,1.3-4.1C220.4,61.9,211.6,56.8,200.7,56.8z"/>
		<path fill="#3485A0" d="M162,104.8c-0.9,1.4-2.3,2.6-4.1,3.7c-3.6-2.2-8.6-3.5-14.2-3.5s-10.6,1.4-14.2,3.5
			c-1.8-1.1-3.2-2.3-4.1-3.7c-0.9-1.3-1.3-2.7-1.3-4.1v15.6c0,1.5,0.5,2.8,1.3,4.1c2.9,4.2,10,7.2,18.3,7.2s15.5-3,18.3-7.2
			c0.9-1.3,1.3-2.7,1.3-4.1v-15.6C163.3,102.1,162.8,103.5,162,104.8z"/>
		<path fill="#42C4EC" d="M143.7,89.3c-10.9,0-19.7,5.1-19.7,11.4c0,1.5,0.5,2.8,1.3,4.1c2.9,4.2,10,7.2,18.3,7.2s15.5-3,18.3-7.2
			c0.9-1.3,1.3-2.7,1.3-4.1C163.3,94.4,154.5,89.3,143.7,89.3z"/>
	</g>
</g>
</svg>
