<?xml version="1.0" encoding="UTF-8"?>
<svg width="270px" height="176px" viewBox="0 0 270 176" version="1.1" xmlns="http://www.w3.org/2000/svg" xmlns:xlink="http://www.w3.org/1999/xlink">
    <!-- Generator: Sketch 47.1 (45422) - http://www.bohemiancoding.com/sketch -->
    <title>code editor</title>
    <desc>Created with Sketch.</desc>
    <defs>
        <polygon id="path-1" points="269.863888 0.112693032 8.94123406e-05 0.112693032 8.94123406e-05 156.958557 269.863888 156.958557 269.863888 0.112693032"></polygon>
    </defs>
    <g id="Page-1" stroke="none" stroke-width="1" fill="none" fill-rule="evenodd">
        <g id="Home" transform="translate(-729.000000, -1707.000000)">
            <g id="Group" transform="translate(113.000000, 1707.000000)">
                <g id="code-editor" transform="translate(616.000000, 0.000000)">
                    <g id="Group-193">
                        <g id="Group-116" opacity="0.368999094" transform="translate(0.000000, 20.881356)">
                            <polygon id="Fill-1" fill="#62689D" points="89.5549401 50.4625145 86.1109548 52.4724279 82.6441944 50.4625145 86.0881797 48.4526011"></polygon>
                            <g id="Group-91">
                                <path d="M111.793764,7.77896798 C112.436417,8.15151789 112.442028,8.75641431 111.803336,9.12896422 C111.162664,9.50283992 110.122933,9.50184557 109.48028,9.12896422 C108.835317,8.75508851 108.832016,8.15151789 109.472688,7.77764218 C110.11138,7.40509228 111.148801,7.40509228 111.793764,7.77896798" id="Fill-3" fill="#43A242"></path>
                                <polygon id="Fill-5" fill="#3F406B" points="93.2814022 17.8686403 90.5071357 19.4874426 86.4736394 17.1490621 89.2479059 15.5302599"></polygon>
                                <polygon id="Fill-7" fill="#3F406B" points="113.298568 20.6615714 111.91028 21.4716354 96.8592653 12.7455488 98.2475538 11.9354847"></polygon>
                                <polygon id="Fill-9" fill="#3F406B" points="87.0798521 21.4876113 84.3055856 23.1064136 80.2720892 20.7680331 83.0463557 19.1492309"></polygon>
                                <polygon id="Fill-11" fill="#3F406B" points="101.664968 23.5352768 100.27668 24.3453409 92.7533178 19.9834576 94.1416064 19.1733936"></polygon>
                                <polygon id="Fill-13" fill="#3F406B" points="95.4634181 27.154281 94.0751296 27.964345 86.5517677 23.6024618 87.9400562 22.7923977"></polygon>
                                <polygon id="Fill-15" fill="#62689D" points="130.899433 26.3354998 127.453137 28.346739 123.986377 26.3368256 127.432672 24.3255864"></polygon>
                                <polygon id="Fill-17" fill="#3F406B" points="68.4501822 27.5197047 65.6759156 29.138507 61.6404389 26.7988008 64.4143753 25.1799985"></polygon>
                                <polygon id="Fill-19" fill="#6981B3" points="84.4953778 27.7224859 81.2586785 29.61142 78.0005244 27.7224859 81.2372237 25.8335518"></polygon>
                                <polygon id="Fill-21" fill="#62689D" points="122.631359 31.1604188 119.185064 33.171658 115.718303 31.1617446 119.164599 29.1505055"></polygon>
                                <polygon id="Fill-23" fill="#3F406B" points="60.1821418 32.3446237 57.4058949 33.9647518 53.370088 31.6250456 56.146335 30.0049175"></polygon>
                                <path d="M91.6841773,34.5815804 L93.0721357,33.7715164 L85.5487738,29.4096331 L84.1608154,30.2196972 L91.6841773,34.5815804 L91.6841773,34.5815804 Z M81.2584804,29.6114863 L84.4955098,27.7225522 L81.2373557,25.8336181 L78.0006565,27.7225522 L81.2584804,29.6114863 L81.2584804,29.6114863 Z M69.9019768,17.8271096 L99.9558154,35.2511096 L94.5601064,38.399554 L64.5065978,20.9758855 L69.9019768,17.8271096 Z" id="Fill-25" fill="#292845"></path>
                                <polygon id="Fill-27" fill="#D9DADB" points="93.0722677 33.7715495 91.6843093 34.5816136 84.1606174 30.2197303 85.5489059 29.4096663"></polygon>
                                <polygon id="Fill-29" fill="#3F406B" points="80.1845208 35.1290034 78.7965623 35.9390674 67.9199853 29.6335608 69.3082738 28.8234968"></polygon>
                                <polygon id="Fill-31" fill="#B199A0" points="139.532699 49.9393537 134.987259 52.5919488 124.172076 46.3215759 128.717516 43.6693122"></polygon>
                                <polygon id="Fill-33" fill="#131D3F" points="106.213181 49.8588444 101.66576 52.5127653 97.6530587 50.1863171 102.200809 47.5327277"></polygon>
                                <polygon id="Fill-35" fill="#6BB4B3" points="182.442961 55.5777175 177.89554 58.2316384 152.450516 43.4797891 156.998267 40.8258682"></polygon>
                                <polygon id="Fill-37" fill="#3665A3" points="136.870988 58.1339601 132.323567 60.787881 115.799435 51.2076475 120.346856 48.554058"></polygon>
                                <polygon id="Fill-39" fill="#3665A3" points="160.242161 61.945835 155.696721 64.5984301 139.172589 55.0181966 143.718029 52.365933"></polygon>
                                <polygon id="Fill-41" fill="#6BB4B3" points="175.758976 70.9418546 171.213535 73.5944497 159.603866 66.8636927 164.149306 64.2110976"></polygon>
                                <polygon id="Fill-43" fill="#6BB4B3" points="195.227923 72.6082863 190.680502 75.2622072 165.233498 60.509032 169.780918 57.8551111"></polygon>
                                <polygon id="Fill-45" fill="#131D3F" points="203.345648 77.3146124 198.798227 79.9685333 194.785526 77.6420851 199.333276 74.9884957"></polygon>
                                <polygon id="Fill-47" fill="#6BB4B3" points="201.355537 85.7816708 196.810097 88.4342659 174.907749 75.7360814 179.453189 73.0834863"></polygon>
                                <polygon id="Fill-49" fill="#6BB4B3" points="218.299093 95.6048241 213.753653 98.2574192 200.820389 90.7593552 205.365829 88.1067601"></polygon>
                                <path d="M110.91732,37.9964776 L114.361636,35.9865642 L110.895205,33.9766508 L107.45089,35.9865642 L110.91732,37.9964776 L110.91732,37.9964776 Z M86.1109878,52.4725605 L89.5553032,50.4623156 L86.0888729,48.4527337 L82.6445575,50.4626471 L86.1109878,52.4725605 L86.1109878,52.4725605 Z M119.185658,33.1715586 L122.631623,31.1603194 L119.165193,29.1507375 L115.719227,31.1616452 L119.185658,33.1715586 L119.185658,33.1715586 Z M102.647333,42.822391 L106.093298,40.8114832 L102.626868,38.8019013 L99.1809022,40.812809 L102.647333,42.822391 L102.647333,42.822391 Z M94.3789951,47.6476414 L97.825291,45.6364023 L94.3588606,43.6268203 L90.9125648,45.6377281 L94.3789951,47.6476414 L94.3789951,47.6476414 Z M127.453665,28.3466395 L130.899961,26.3354004 L127.433531,24.3258185 L123.986905,26.3367262 L127.453665,28.3466395 L127.453665,28.3466395 Z M199.333078,74.9882968 L194.785658,77.6422177 L198.798359,79.9683345 L203.34578,77.314745 L199.333078,74.9882968 L199.333078,74.9882968 Z M101.666024,52.5126659 L106.213445,49.8590765 L102.200743,47.5326282 L97.6533227,50.1862177 L101.666024,52.5126659 L101.666024,52.5126659 Z M130.484729,40.3630313 L135.032149,37.7094418 L127.007076,33.0565454 L122.459655,35.7104663 L130.484729,40.3630313 L130.484729,40.3630313 Z M139.533029,49.9392874 L128.717846,43.669246 L124.172406,46.3218411 L134.987259,52.5918825 L139.533029,49.9392874 L139.533029,49.9392874 Z M164.14957,64.2108655 L159.60413,66.8634606 L171.2138,73.5942177 L175.75924,70.9416226 L164.14957,64.2108655 L164.14957,64.2108655 Z M147.838335,69.7825416 L152.385756,67.1286207 L140.778396,60.3991895 L136.230976,63.0531104 L147.838335,69.7825416 L147.838335,69.7825416 Z M221.962907,121.140402 L252.639924,103.238451 C253.104998,102.967325 253.104337,102.521525 252.634313,102.249073 C252.166599,101.977615 251.400169,101.978941 250.935095,102.250067 L220.258078,120.152018 C219.793335,120.423144 219.793665,120.869276 220.261709,121.140402 C220.731733,121.412854 221.498494,121.411528 221.962907,121.140402 L221.962907,121.140402 Z M213.753983,98.2574192 L218.299423,95.6048241 L205.366489,88.1067601 L200.821049,90.7593552 L213.753983,98.2574192 L213.753983,98.2574192 Z M135.377736,28.1719653 L130.830315,30.8255548 L146.880132,40.1306847 L151.427883,37.4767638 L135.377736,28.1719653 L135.377736,28.1719653 Z M143.718029,52.3658335 L139.172589,55.0180972 L155.697051,64.5983307 L160.242491,61.9457356 L143.718029,52.3658335 L143.718029,52.3658335 Z M132.323567,60.787649 L136.870988,58.1340595 L120.347186,48.5541574 L115.799765,51.2077469 L132.323567,60.787649 L132.323567,60.787649 Z M196.810328,88.4342328 L201.355768,85.7816377 L179.453421,73.0834531 L174.90798,75.7360482 L196.810328,88.4342328 L196.810328,88.4342328 Z M173.437174,84.623551 L177.984594,81.9699616 L156.082577,69.271777 L151.534826,71.9256979 L173.437174,84.623551 L173.437174,84.623551 Z M134.718579,42.8177507 L160.163274,57.5692685 L164.710694,54.9156791 L139.266,40.1638298 L134.718579,42.8177507 L134.718579,42.8177507 Z M156.998531,40.8257356 L152.45111,43.4796565 L177.895804,58.2315058 L182.443225,55.5775849 L156.998531,40.8257356 L156.998531,40.8257356 Z M169.780951,57.85531 L165.233531,60.5088994 L190.680535,75.2620746 L195.227956,72.6084851 L169.780951,57.85531 L169.780951,57.85531 Z M127.274765,20.4465266 L262.728286,98.9766659 L211.291966,128.992786 L75.838445,50.4626471 L127.274765,20.4465266 Z" id="Fill-51" fill="#2C2B4F"></path>
                                <polygon id="Fill-53" fill="#3665A3" points="151.427619 37.4769627 146.880198 40.1308836 130.830051 30.8257537 135.377472 28.1718328"></polygon>
                                <polygon id="Fill-55" fill="#131D3F" points="135.031984 37.7091766 130.484564 40.3630976 122.45949 35.7105326 127.006911 33.0566117"></polygon>
                                <polygon id="Fill-57" fill="#62689D" points="81.2868998 55.2874004 77.8429144 57.2973137 74.376154 55.2874004 77.8201394 53.277487"></polygon>
                                <polygon id="Fill-59" fill="#B199A0" points="95.1521259 62.6853333 90.6047054 65.3392542 79.789522 59.0688814 84.3369425 56.4149605"></polygon>
                                <polygon id="Fill-61" fill="#3665A3" points="109.800715 71.1779465 105.253295 73.8318674 94.7919499 67.7666621 99.3397005 65.1130727"></polygon>
                                <polygon id="Fill-63" fill="#6BB4B3" points="131.378435 83.6878343 126.831015 86.3417552 110.951516 77.1353974 115.499267 74.4818079"></polygon>
                                <polygon id="Fill-65" fill="#6BB4B3" points="157.988652 99.1153115 153.441231 101.769232 131.758053 89.1979932 136.305473 86.5444038"></polygon>
                                <path d="M77.8427824,57.2972806 L81.2867677,55.2873672 L77.8203374,53.2774539 L74.376022,55.2873672 L77.8427824,57.2972806 L77.8427824,57.2972806 Z M105.253394,73.8316685 L109.800814,71.1780791 L99.3394694,65.1128738 L94.7920489,67.7667947 L105.253394,73.8316685 L105.253394,73.8316685 Z M90.6047384,65.3389228 L95.1521589,62.6853333 L84.3369756,56.4149605 L79.789555,59.0688814 L90.6047384,65.3389228 L90.6047384,65.3389228 Z M126.830949,86.3415895 L131.378369,83.6876685 L115.4992,74.4816422 L110.95178,77.1355631 L126.830949,86.3415895 L126.830949,86.3415895 Z M153.441132,101.768934 L157.988553,99.1153446 L136.305704,86.5444369 L131.757954,89.1980264 L153.441132,101.768934 L153.441132,101.768934 Z M75.8382469,50.4624482 L211.291768,128.992919 L204.939506,132.699857 L69.4859853,54.1693861 L75.8382469,50.4624482 Z" id="Fill-67" fill="#252641"></path>
                                <path d="M105.587362,5.52477589 C104.946689,5.8986516 104.94966,6.50222222 105.594623,6.87609793 C106.237276,7.24864783 107.275357,7.24864783 107.916029,6.87477213 C108.554391,6.50222222 108.55076,5.8986516 107.908108,5.52610169 C107.263144,5.15222599 106.225724,5.15222599 105.587362,5.52477589 L105.587362,5.52477589 Z M104.019844,3.2719096 C103.377191,2.8993597 102.33944,2.89902825 101.701078,3.27157815 C101.060406,3.64545386 101.063707,4.24935593 101.706359,4.62190584 C102.351323,4.99578154 103.389073,4.99578154 104.029746,4.62157439 C104.668108,4.24902448 104.664807,3.64578531 104.019844,3.2719096 L104.019844,3.2719096 Z M111.794061,7.77896798 C111.149428,7.40542373 110.111677,7.40509228 109.473315,7.77764218 C108.832643,8.15151789 108.835944,8.75541996 109.480247,9.12896422 C110.12356,9.50184557 111.163621,9.50283992 111.804293,9.12896422 C112.442655,8.75641431 112.437044,8.15184934 111.794061,7.77896798 L111.794061,7.77896798 Z M100.277472,24.3455066 L101.66543,23.5354426 L94.1417384,19.1735593 L92.75378,19.9832919 L100.277472,24.3455066 L100.277472,24.3455066 Z M94.0760538,27.9642787 L95.4640122,27.1545461 L87.9399902,22.7923315 L86.5520318,23.6023955 L94.0760538,27.9642787 L94.0760538,27.9642787 Z M90.5076308,19.4874426 L93.2815672,17.8686403 L89.2480709,15.5302599 L86.4741345,17.1487307 L90.5076308,19.4874426 L90.5076308,19.4874426 Z M84.3062127,23.1062147 L87.0798191,21.4877439 L83.0463227,19.149032 L80.2727164,20.7678343 L84.3062127,23.1062147 L84.3062127,23.1062147 Z M65.6762127,29.1386064 L68.4504792,27.5198041 L64.4150024,25.1800979 L61.6407359,26.7989002 L65.6762127,29.1386064 L65.6762127,29.1386064 Z M94.6157237,12.2505612 L97.3899902,10.6317589 L93.3545134,8.29205273 L90.5802469,9.91118644 L94.6157237,12.2505612 L94.6157237,12.2505612 Z M57.4058949,33.9648512 L60.1824719,32.3443917 L56.1469951,30.0050169 L53.3707482,31.625145 L57.4058949,33.9648512 L57.4058949,33.9648512 Z M69.3086699,28.8233974 L67.9207115,29.6334614 L78.7972885,35.938968 L80.1852469,35.1292354 L69.3086699,28.8233974 L69.3086699,28.8233974 Z M74.7037188,43.184467 L76.0900269,42.3757288 L61.0386822,33.6496422 L59.6523741,34.4583804 L74.7037188,43.184467 L74.7037188,43.184467 Z M111.910907,21.4718343 L113.299196,20.6617702 L98.2478509,11.9356836 L96.8595623,12.7457476 L111.910907,21.4718343 L111.910907,21.4718343 Z M262.728682,98.976467 L127.274831,20.4463277 L34.0314205,74.8594953 L169.485271,153.389635 L167.661616,154.453921 C166.382252,155.200347 164.281665,155.200678 162.994049,154.454252 L1.19176284,60.6479096 C-0.0958533007,59.901484 -0.102784841,58.6794275 1.17657946,57.9330019 L64.5070929,20.9756535 L94.5609315,38.3996535 L99.9563105,35.251209 L69.9024719,17.827209 L99.1869095,0.737973635 C100.466274,-0.0087834275 102.567191,-0.0087834275 103.854807,0.737973635 L265.657093,94.5443164 C266.944709,95.290742 266.951311,96.512467 265.671946,97.2588927 L262.728682,98.976467 Z" id="Fill-69" fill="#1F2032"></path>
                                <polygon id="Fill-71" fill="#3F406B" points="76.0891687 42.3754968 74.7031907 43.184235 59.652176 34.4584798 61.038154 33.6494102"></polygon>
                                <polygon id="Fill-73" fill="#3665A3" points="164.710562 54.9155797 160.163142 57.5695006 134.718117 42.8176512 139.265868 40.1637303"></polygon>
                                <polygon id="Fill-75" fill="#6BB4B3" points="152.385689 67.1287202 147.838269 69.7826411 136.230579 63.0528783 140.778 60.3992889"></polygon>
                                <polygon id="Fill-77" fill="#3665A3" points="89.0926394 68.7906441 84.5452188 71.444565 71.5211846 63.8938004 76.0689352 61.2398795"></polygon>
                                <polygon id="Fill-79" fill="#131D3F" points="72.5565257 78.4404821 68.0091051 81.094403 54.9850709 73.5436384 59.5328215 70.8897175"></polygon>
                                <polygon id="Fill-81" fill="#5BB5D8" points="109.473348 80.6065416 104.925928 83.2604625 89.0444487 74.0527789 93.5918692 71.3991895"></polygon>
                                <polygon id="Fill-83" fill="#6BB4B3" points="177.984363 81.9697627 173.436943 84.6236836 151.534595 71.9254991 156.082016 69.2715782"></polygon>
                                <polygon id="Fill-85" fill="#3665A3" points="92.9372347 90.2563797 88.3898142 92.9103006 72.508335 83.7026169 77.0557555 81.0490275"></polygon>
                                <polygon id="Fill-87" fill="#5BB5D8" points="134.720065 95.2435435 130.172644 97.8974644 108.489466 85.3262252 113.036886 82.6726358"></polygon>
                                <polygon id="Fill-89" fill="#5BB5D8" points="118.183951 104.893382 113.636531 107.547302 91.9533521 94.9760633 96.5007726 92.3224738"></polygon>
                            </g>
                            <polygon id="Fill-92" fill="#62689D" points="73.0188264 60.1123194 69.5725306 62.1235586 66.1057702 60.1136452 69.552066 58.102406"></polygon>
                            <polygon id="Fill-94" fill="#62689D" points="64.7507861 64.9372053 61.3044902 66.9484444 57.8377298 64.9385311 61.2840257 62.9272919"></polygon>
                            <polygon id="Fill-96" fill="#62689D" points="56.4806333 69.7633507 53.0363178 71.773264 49.5698875 69.7633507 53.0138729 67.7534373"></polygon>
                            <polygon id="Fill-98" fill="#62689D" points="48.2125929 74.5882697 44.7686076 76.5981831 41.3018472 74.5882697 44.7458325 72.5783563"></polygon>
                            <path d="M44.7463936,72.578522 L41.3024083,74.5884354 L44.7688386,76.5980173 L48.212824,74.5884354 L44.7463936,72.578522 L44.7463936,72.578522 Z M53.014401,67.753603 L49.5704156,69.7635164 L53.036846,71.7730983 L56.4808313,69.7635164 L53.014401,67.753603 L53.014401,67.753603 Z M61.2847188,62.9273582 L57.838423,64.9385974 L61.3048533,66.9481793 L64.7511491,64.9372716 L61.2847188,62.9273582 L61.2847188,62.9273582 Z M69.5527262,58.1024392 L66.1064303,60.1136783 L69.5728606,62.1235917 L73.0191565,60.1123525 L69.5527262,58.1024392 L69.5527262,58.1024392 Z M76.0690342,61.2399458 L71.5216137,63.8938667 L84.5453178,71.4446313 L89.0930685,68.7907104 L76.0690342,61.2399458 L76.0690342,61.2399458 Z M59.5330196,70.8897838 L54.985599,73.5433733 L68.0096333,81.0941379 L72.5570538,78.4405484 L59.5330196,70.8897838 L59.5330196,70.8897838 Z M77.0562836,81.0490606 L72.5088631,83.7026501 L88.3903423,92.9100023 L92.9377628,90.2564128 L77.0562836,81.0490606 L77.0562836,81.0490606 Z M93.5919682,71.3992226 L89.0445477,74.0528121 L104.926027,83.2604957 L109.473778,80.6065748 L93.5919682,71.3992226 L93.5919682,71.3992226 Z M96.5012347,92.3223412 L91.9538142,94.9762621 L113.636993,107.54717 L118.184413,104.893249 L96.5012347,92.3223412 L96.5012347,92.3223412 Z M113.037249,82.6728347 L108.489829,85.3264241 L130.173007,97.8973318 L134.720428,95.2437424 L113.037249,82.6728347 L113.037249,82.6728347 Z M34.0315526,74.8595616 L69.4863814,54.1694524 L204.939902,132.699923 L169.485073,153.389701 L34.0315526,74.8595616 Z" id="Fill-100" fill="#2C2B4F"></path>
                            <path d="M252.634214,102.248774 C253.104238,102.521226 253.104568,102.967027 252.639825,103.238484 L221.962808,121.140435 C221.498065,121.411562 220.731304,121.412887 220.26128,121.140435 C219.793566,120.868978 219.792906,120.423177 220.257979,120.152051 L250.934996,102.2501 C251.39974,101.978643 252.1665,101.977648 252.634214,102.248774" id="Fill-102" fill="#3F406B"></path>
                            <polygon id="Fill-104" fill="#3F406B" points="97.3894291 10.6319247 94.6151626 12.2507269 90.5796858 9.91102072 93.3536222 8.29221846"></polygon>
                            <path d="M104.019546,3.27181017 C104.66451,3.64568588 104.667811,4.2492565 104.029119,4.6218064 C103.388446,4.99568211 102.351026,4.99568211 101.706062,4.6218064 C101.063079,4.2492565 101.059779,3.64568588 101.700451,3.27181017 C102.339143,2.89926026 103.376894,2.89926026 104.019546,3.27181017" id="Fill-106" fill="#D25452"></path>
                            <path d="M107.907711,5.52596911 C108.550364,5.89851902 108.553995,6.50208964 107.915303,6.874971 C107.274631,7.2488467 106.23688,7.2488467 105.594227,6.87596535 C104.949264,6.50208964 104.945963,5.89851902 105.586636,5.52464331 C106.225328,5.15209341 107.262748,5.15209341 107.907711,5.52596911" id="Fill-108" fill="#DBA437"></path>
                            <polygon id="Fill-110" fill="#62689D" points="114.361207 35.9865642 110.917221 37.9964776 107.450461 35.9865642 110.894446 33.9766508"></polygon>
                            <polygon id="Fill-112" fill="#62689D" points="106.093166 40.8114501 102.64687 42.8226893 99.18011 40.8127759 102.626406 38.8015367"></polygon>
                            <polygon id="Fill-114" fill="#62689D" points="97.8250929 45.6363691 94.3787971 47.6476083 90.9120367 45.6376949 94.3583325 43.6264557"></polygon>
                        </g>
                        <g id="Group-192">
                            <polygon id="Fill-117" fill="#62689D" points="123.998061 31.5043646 120.509846 33.5397996 116.998856 31.5043646 120.487071 29.4689296"></polygon>
                            <polygon id="Fill-119" fill="#3F406B" points="60.7465012 32.7032527 57.9365868 34.3429363 53.8506088 31.9737311 56.6601932 30.3343789"></polygon>
                            <polygon id="Fill-121" fill="#3665A3" points="153.168656 37.9015834 148.562483 40.5896437 132.30604 31.1645288 136.912214 28.4768"></polygon>
                            <polygon id="Fill-123" fill="#131D3F" points="136.560851 38.1374433 131.954677 40.8255036 123.826291 36.1129461 128.432465 33.4248859"></polygon>
                            <polygon id="Fill-125" fill="#B199A0" points="141.119197 50.5227721 136.513023 53.2108324 125.558879 46.8599171 130.164722 44.1718569"></polygon>
                            <polygon id="Fill-127" fill="#62689D" points="90.4987188 51.0532911 87.0105037 53.0887262 83.4998435 51.0532911 86.9877286 49.0178561"></polygon>
                            <polygon id="Fill-129" fill="#6BB4B3" points="184.580219 56.2344859 179.974045 58.9225461 154.202578 43.9811073 158.808752 41.2933785"></polygon>
                            <polygon id="Fill-131" fill="#3665A3" points="138.422366 58.8236746 133.818172 61.510409 117.081143 51.8068761 121.685336 49.1201416"></polygon>
                            <polygon id="Fill-133" fill="#6BB4B3" points="154.13729 67.9345416 149.533097 70.6212761 137.775884 63.8050049 142.380077 61.1182704"></polygon>
                            <polygon id="Fill-135" fill="#6BB4B3" points="177.811207 71.7952723 173.205033 74.4833326 161.44584 67.6657356 166.052013 64.9776753"></polygon>
                            <polygon id="Fill-137" fill="#6BB4B3" points="197.528105 73.4837122 192.921932 76.1717725 167.148484 61.2293394 171.754658 58.5412791"></polygon>
                            <polygon id="Fill-139" fill="#131D3F" points="205.751189 78.2511247 201.145016 80.9391849 197.079833 78.5822433 201.686006 75.8941831"></polygon>
                            <polygon id="Fill-141" fill="#6BB4B3" points="180.064716 82.966168 175.460523 85.6529024 153.275963 72.791313 157.880156 70.1045785"></polygon>
                            <polygon id="Fill-143" fill="#6BB4B3" points="203.736521 86.8257055 199.130347 89.5137657 176.947768 76.6531706 181.553941 73.9651104"></polygon>
                            <polygon id="Fill-145" fill="#6BB4B3" points="220.899246 96.7759367 216.293072 99.463997 203.191471 91.8681552 207.797644 89.1800949"></polygon>
                            <path d="M128.885028,28.652568 L132.373243,26.617133 L128.862253,24.5813665 L125.374038,26.617133 L128.885028,28.652568 L128.885028,28.652568 Z M120.510077,33.5397996 L123.998292,31.5043646 L120.487302,29.4685981 L116.999087,31.5043646 L120.510077,33.5397996 L120.510077,33.5397996 Z M103.760505,43.3142629 L107.24872,41.2788279 L103.73773,39.2430614 L100.249515,41.2788279 L103.760505,43.3142629 L103.760505,43.3142629 Z M112.135456,38.4270313 L115.623341,36.3915962 L112.112681,34.3558298 L108.624466,36.3915962 L112.135456,38.4270313 L112.135456,38.4270313 Z M95.3855538,48.2014945 L98.8737689,46.1660595 L95.3627787,44.130293 L91.8748936,46.1660595 L95.3855538,48.2014945 L95.3855538,48.2014945 Z M87.0109328,53.0887262 L90.4988178,51.0532911 L86.9881577,49.0175247 L83.4999425,51.0532911 L87.0109328,53.0887262 L87.0109328,53.0887262 Z M102.765334,53.1301574 L107.371507,50.4420972 L103.308634,48.0868128 L98.7024609,50.7748731 L102.765334,53.1301574 L102.765334,53.1301574 Z M201.686336,75.8941499 L197.080163,78.5822102 L201.145346,80.9391518 L205.75185,78.2510915 L201.686336,75.8941499 L201.686336,75.8941499 Z M131.95504,40.8254041 L136.561544,38.1373439 L128.433158,33.4251179 L123.826984,36.1131782 L131.95504,40.8254041 L131.95504,40.8254041 Z M141.119527,50.5226395 L130.165383,44.1717243 L125.559209,46.8597846 L136.513353,53.2106998 L141.119527,50.5226395 L141.119527,50.5226395 Z M149.533757,70.6211104 L154.13762,67.9347073 L142.380407,61.1181047 L137.776544,63.8048392 L149.533757,70.6211104 L149.533757,70.6211104 Z M166.052278,64.9775096 L161.446104,67.6655699 L173.205297,74.4831669 L177.811801,71.7951066 L166.052278,64.9775096 L166.052278,64.9775096 Z M224.60894,122.640214 L255.679735,104.508237 C256.15273,104.23247 256.148109,103.781366 255.674123,103.506926 C255.197828,103.230496 254.424796,103.230496 253.951801,103.506594 L222.881006,121.63824 C222.409991,121.913344 222.410652,122.364116 222.886947,122.640214 C223.360933,122.914986 224.137925,122.914986 224.60894,122.640214 L224.60894,122.640214 Z M216.293402,99.4638976 L220.899906,96.7758373 L207.797974,89.1799955 L203.191471,91.8680557 L216.293402,99.4638976 L216.293402,99.4638976 Z M136.912412,28.4768994 L132.306238,31.1649597 L148.562681,40.5897431 L153.168855,37.9016829 L136.912412,28.4768994 L136.912412,28.4768994 Z M133.818634,61.5102102 L138.422498,58.8238072 L121.685798,49.1202742 L117.081935,51.8070087 L133.818634,61.5102102 L133.818634,61.5102102 Z M145.359649,52.9810049 L140.753476,55.6690652 L157.488194,65.3712723 L162.094698,62.6832121 L145.359649,52.9810049 L145.359649,52.9810049 Z M175.461348,85.653035 L180.065211,82.9663006 L157.880322,70.1043797 L153.276458,72.7911141 L175.461348,85.653035 L175.461348,85.653035 Z M199.130908,89.5137657 L203.737082,86.8257055 L181.554172,73.9651104 L176.947999,76.6531706 L199.130908,89.5137657 L199.130908,89.5137657 Z M136.241703,43.3106169 L162.01284,58.2517243 L166.619013,55.563664 L140.847877,40.6225567 L136.241703,43.3106169 L136.241703,43.3106169 Z M158.809148,41.2930802 L154.202974,43.9811405 L179.974441,58.9225793 L184.580615,56.234519 L158.809148,41.2930802 L158.809148,41.2930802 Z M171.754955,58.5410802 L167.148451,61.2291405 L192.922229,76.1715736 L197.528402,73.4835134 L171.754955,58.5410802 L171.754955,58.5410802 Z M128.703818,20.6513627 L265.897815,100.190768 L213.800358,130.593027 L76.6060306,51.0532911 L128.703818,20.6513627 Z" id="Fill-147" fill="#2C2B4F"></path>
                            <polygon id="Fill-149" fill="#131D3F" points="107.37121 50.442296 102.765037 53.1303563 98.7018337 50.7747405 103.308007 48.0866802"></polygon>
                            <path d="M78.6358166,57.9760241 L82.1240318,55.9405891 L78.6130416,53.905154 L75.1248264,55.9405891 L78.6358166,57.9760241 L78.6358166,57.9760241 Z M106.398286,74.7218772 L111.00446,72.0338169 L100.408445,65.8907209 L95.8022714,68.5787812 L106.398286,74.7218772 L106.398286,74.7218772 Z M91.5641296,66.1217416 L96.1703032,63.4336814 L85.2161589,57.0827661 L80.6099853,59.7708264 L91.5641296,66.1217416 L91.5641296,66.1217416 Z M128.254093,87.3928829 L132.860267,84.705154 L116.776452,75.3804685 L112.170279,78.0681974 L128.254093,87.3928829 L128.254093,87.3928829 Z M155.205572,103.018435 L159.811746,100.330374 L137.850645,87.5980505 L133.244472,90.2861107 L155.205572,103.018435 L155.205572,103.018435 Z M76.6055355,51.0533574 L213.799863,130.592762 L207.366073,134.347429 L70.1717457,54.8080241 L76.6055355,51.0533574 Z" id="Fill-151" fill="#252641"></path>
                            <polygon id="Fill-153" fill="#62689D" points="82.1238998 55.9404896 78.6356846 57.9759247 75.1250244 55.9404896 78.6129095 53.9050546"></polygon>
                            <polygon id="Fill-155" fill="#3665A3" points="166.618782 55.5637966 162.012609 58.2518569 136.241142 43.3104181 140.847315 40.6226893"></polygon>
                            <polygon id="Fill-157" fill="#3665A3" points="90.031434 69.6172475 85.4252604 72.3053077 72.2348692 64.6580911 76.8410428 61.9700309"></polygon>
                            <polygon id="Fill-159" fill="#5BB5D8" points="110.673462 81.5846177 106.067289 84.272678 89.9814939 74.9466667 94.5876675 72.2586064"></polygon>
                            <polygon id="Fill-161" fill="#3665A3" points="93.923791 91.359081 89.3176174 94.0471412 73.2318227 84.7211299 77.8379963 82.0330697"></polygon>
                            <polygon id="Fill-163" fill="#5BB5D8" points="136.24474 96.4097838 131.638566 99.0978441 109.675155 86.3641944 114.281329 83.6764655"></polygon>
                            <polygon id="Fill-165" fill="#5BB5D8" points="119.495068 106.184214 114.888895 108.872274 92.9254841 96.1386245 97.5316577 93.4508957"></polygon>
                            <path d="M45.1138643,73.4537492 L41.6256491,75.4891842 L45.1366394,77.5249507 L48.6248545,75.4891842 L45.1138643,73.4537492 L45.1138643,73.4537492 Z M53.4888154,68.5665175 L50.0006002,70.6019525 L53.5115905,72.637719 L56.9998056,70.6019525 L53.4888154,68.5665175 L53.4888154,68.5665175 Z M61.8634364,63.6792859 L58.3755513,65.7147209 L61.8862115,67.7504874 L65.3744267,65.7147209 L61.8634364,63.6792859 L61.8634364,63.6792859 Z M70.2383875,58.7920542 L66.7501724,60.8274893 L70.2611626,62.8632557 L73.7493778,60.8274893 L70.2383875,58.7920542 L70.2383875,58.7920542 Z M76.8415049,61.9699977 L72.2353313,64.658058 L85.4257225,72.3052746 L90.0318961,69.6172143 L76.8415049,61.9699977 L76.8415049,61.9699977 Z M60.0919328,71.744461 L55.4857592,74.4325213 L68.6761504,82.0797379 L73.282324,79.3916776 L60.0919328,71.744461 L60.0919328,71.744461 Z M77.8383264,82.0330034 L73.2321528,84.7210637 L89.3179474,94.047075 L93.9244511,91.3590147 L77.8383264,82.0330034 L77.8383264,82.0330034 Z M94.5878985,72.2585401 L89.9817249,74.9466004 L106.06785,84.2726117 L110.674023,81.5845514 L94.5878985,72.2585401 L94.5878985,72.2585401 Z M97.5321528,93.4507962 L92.9259792,96.1388565 L114.88906,108.872175 L119.495564,106.184115 L97.5321528,93.4507962 L97.5321528,93.4507962 Z M114.281725,83.676333 L109.675551,86.3643932 L131.638962,99.0977115 L136.245136,96.4096512 L114.281725,83.676333 L114.281725,83.676333 Z M34.2627029,75.7632934 L70.1723729,54.8080241 L207.36637,134.347429 L171.457031,155.302698 L34.2627029,75.7632934 Z" id="Fill-167" fill="#2C2B4F"></path>
                            <polygon id="Fill-169" fill="#62689D" points="73.7490477 60.8277213 70.2608325 62.8631563 66.7501724 60.8277213 70.2380575 58.7922863"></polygon>
                            <polygon id="Fill-171" fill="#3665A3" points="162.094203 62.6832121 157.488029 65.3712723 140.75298 55.6690652 145.359154 52.9810049"></polygon>
                            <polygon id="Fill-173" fill="#B199A0" points="96.1703032 63.4336814 91.5641296 66.1217416 80.6099853 59.7708264 85.2161589 57.0827661"></polygon>
                            <polygon id="Fill-175" fill="#62689D" points="65.3742286 65.7149529 61.8860134 67.7503879 58.3753533 65.7149529 61.8632384 63.6795179"></polygon>
                            <polygon id="Fill-177" fill="#62689D" points="56.9993765 70.6021514 53.5111614 72.6375864 50.0005012 70.6021514 53.4883863 68.5667164"></polygon>
                            <polygon id="Fill-179" fill="#3665A3" points="111.004361 72.0338501 106.398187 74.7219104 95.8021724 68.5788143 100.408346 65.890754"></polygon>
                            <polygon id="Fill-181" fill="#131D3F" points="73.2817628 79.3916776 68.6755892 82.0797379 55.485198 74.4325213 60.0913716 71.744461"></polygon>
                            <polygon id="Fill-183" fill="#6BB4B3" points="132.860233 84.7049883 128.25406 87.3930486 112.170246 78.0683631 116.776419 75.3803028"></polygon>
                            <polygon id="Fill-185" fill="#6BB4B3" points="159.811845 100.330408 155.205671 103.018468 133.244241 90.2861439 137.850414 87.5980836"></polygon>
                            <path d="M255.673892,103.506627 C256.148208,103.7814 256.152829,104.232503 255.679504,104.508601 L224.608709,122.640247 C224.137694,122.915019 223.360702,122.915019 222.886386,122.640247 C222.41009,122.364149 222.40976,121.913046 222.880775,121.638273 L253.95157,103.506627 C254.424565,103.23053 255.197597,103.23053 255.673892,103.506627" id="Fill-187" fill="#3F406B"></path>
                            <g id="Group-191">
                                <mask id="mask-2" fill="white">
                                    <use xlink:href="#path-1"></use>
                                </mask>
                                <g id="Clip-190"></g>
                                <path d="M106.73572,5.53773559 C106.086466,5.91658305 106.091747,6.52843992 106.742982,6.90596158 C107.396527,7.28480904 108.44649,7.28480904 109.095744,6.90596158 C109.742688,6.52843992 109.741368,5.9162516 109.087823,5.53740414 C108.436918,5.15988249 107.382664,5.16021394 106.73572,5.53773559 L106.73572,5.53773559 Z M105.153348,3.2563646 C104.500463,2.87784859 103.448189,2.87917439 102.801246,3.25669605 C102.151991,3.6355435 102.155292,4.24640603 102.808507,4.62492203 C103.460072,5.00277514 104.512016,5.00376949 105.16127,4.62492203 C105.808214,4.24740038 105.805243,3.6342177 105.153348,3.2563646 L105.153348,3.2563646 Z M113.024938,7.81976949 C112.373703,7.44224783 111.319119,7.44224783 110.672175,7.81976949 C110.022921,8.19861695 110.028532,8.81080527 110.679767,9.18832693 C111.331001,9.56584859 112.383275,9.56717439 113.032529,9.18832693 C113.679473,8.81080527 113.675842,8.19729115 113.024938,7.81976949 L113.024938,7.81976949 Z M101.359815,24.6000934 L102.764608,23.7804173 L95.1445342,19.362519 L93.7397421,20.1821951 L101.359815,24.6000934 L101.359815,24.6000934 Z M95.0788496,28.2652685 L96.4833117,27.4455925 L88.8632384,23.0276942 L87.4584462,23.8477017 L95.0788496,28.2652685 L95.0788496,28.2652685 Z M91.4638863,19.6810426 L94.2738007,18.0413589 L90.1874927,15.6724851 L87.3779083,17.3121687 L91.4638863,19.6810426 L91.4638863,19.6810426 Z M57.937346,34.3427375 L60.7472604,32.7030539 L56.6609523,30.33418 L53.8510379,31.9738637 L57.937346,34.3427375 L57.937346,34.3427375 Z M85.1829205,23.3465492 L87.992835,21.7068655 L83.9065269,19.3379917 L81.0966125,20.9776753 L85.1829205,23.3465492 L85.1829205,23.3465492 Z M66.311967,29.4555058 L69.1218814,27.8158222 L65.0359034,25.4469484 L62.225989,27.086632 L66.311967,29.4555058 L66.311967,29.4555058 Z M95.6241308,12.3503608 L98.4337152,10.7106772 L94.3477372,8.34180339 L91.5378227,9.98148701 L95.6241308,12.3503608 L95.6241308,12.3503608 Z M69.9926149,29.1369823 L68.5878227,29.9566584 L79.6030306,36.3427073 L81.0078227,35.5230313 L69.9926149,29.1369823 L69.9926149,29.1369823 Z M75.4556589,43.6810124 L76.8604511,42.8613363 L61.6176638,34.0242139 L60.2128716,34.84389 L75.4556589,43.6810124 L75.4556589,43.6810124 Z M113.142444,21.6883043 L114.547236,20.8686282 L99.3044487,12.0315058 L97.8996565,12.8511819 L113.142444,21.6883043 L113.142444,21.6883043 Z M265.898079,100.190933 L128.703752,20.651197 L34.263165,75.7630614 L171.457493,155.302466 L169.579045,156.398903 C168.299681,157.145329 166.199094,157.144997 164.911478,156.398572 L0.970316626,61.3522742 C-0.317299511,60.6055171 -0.324231051,59.3841235 0.955133252,58.6376979 L65.1293142,21.1881461 L95.5686785,38.8355435 L101.033373,35.6463307 L70.5940086,17.9989333 L100.285097,0.672379661 C101.564461,-0.074045951 103.664388,-0.074045951 104.952004,0.672379661 L268.893495,95.7186772 C270.181111,96.4654343 270.188373,97.6871593 268.909009,98.4335849 L265.898079,100.190933 Z" id="Fill-189" fill="#1F2032" mask="url(#mask-2)"></path>
                            </g>
                        </g>
                    </g>
                    <polygon id="Fill-194" fill="#3F406B" points="99 11.363952 96.1476642 13 92 10.636048 94.8520008 9"></polygon>
                    <polygon id="Fill-195" fill="#3F406B" points="95 18.363952 92.1476642 20 88 17.636048 90.8520008 16"></polygon>
                    <polygon id="Fill-196" fill="#3F406B" points="103 24.2172372 101.59913 25 94 20.7824464 95.4008704 20"></polygon>
                    <polygon id="Fill-197" fill="#3F406B" points="115 21.1511927 113.565498 22 98 12.8488073 99.4348395 12"></polygon>
                    <polygon id="Fill-198" fill="#3F406B" points="97 27.2175041 95.5991296 28 88 23.7824959 89.4008704 23"></polygon>
                    <polygon id="Fill-199" fill="#3F406B" points="88 22.363952 85.1476642 24 81 21.636048 83.8520008 20"></polygon>
                    <polygon id="Fill-200" fill="#D9DADB" points="94 34.2174353 92.5994881 35 85 30.7825647 86.400841 30"></polygon>
                    <polygon id="Fill-201" fill="#3F406B" points="77 43.1511927 75.5654976 44 60 34.8488073 61.4348395 34"></polygon>
                    <polygon id="Fill-202" fill="#3F406B" points="69 28.363952 66.1476642 30 62 27.636048 64.8520008 26"></polygon>
                    <polygon id="Fill-203" fill="#3F406B" points="81 35.2037625 79.6427489 36 69 29.7965595 70.3572511 29"></polygon>
                    <polygon id="Fill-204" fill="#6981B3" points="86 28 82.5115894 30 79 28 82.4887618 26"></polygon>
                    <path d="M92.6030007,35.1026485 L94.0115467,34.2762109 L86.3687946,29.8226676 L84.9602486,30.6487712 L92.6030007,35.1026485 L92.6030007,35.1026485 Z M82.0101125,30.029444 L85.297823,28.1009783 L81.9886004,26.1728466 L78.7012209,28.1009783 L82.0101125,30.029444 L82.0101125,30.029444 Z M70.4792969,18 L101,35.7861131 L95.5207031,39 L65,21.2142209 L70.4792969,18 Z" id="Fill-205" fill="#292845"></path>
                </g>
            </g>
        </g>
    </g>
</svg>