<svg  xmlns="http://www.w3.org/2000/svg" xmlns:svg="http://www.w3.org/2000/svg" width="632" height="512">
 <g>
    <g id="shadow">
        <polygon fill="#222223" points="631.5,315.3000183105469 315.79998779296875,133 0,315.3000183105469 315.79998779296875,497.6000061035156"/>
    </g>

    <g id="plane">
        <polygon fill="#222223" points="631.5,256.3000030517578 315.7999877333641,74 0,256.3000030517578 315.7999877333641,438.6000061035156"/>
        <polygon fill="#141819" points="0,256.3000030517578 0,289.3999938964844 315.7999877333641,471.79998779296875 315.7999877333641,438.6000061035156"/>
        <polygon fill="#1E1D1E" points="315.7999877333641,438.6000061035156 315.7999877333641,471.79998779296875 631.5,289.5 631.5,256.3000030517578"/>
    </g>

    <g id="cube-big">
        <polygon fill="#64A8C5" points="315.5,0 172,82.9000015258789 315.5,165.6999969482422 459.1000061035156,82.9000015258789"/>
        <polygon fill="#1B5768" points="315.5,298.29998779296875 172,215.5 172,82.9000015258789 315.5,165.6999969482422"/>
        <polygon fill="#3485A0" points="459.1000061035156,215.5 315.5,298.29998779296875 315.5,165.6999969482422 459.1000061035156,82.9000015258789"/>
        <path fill="#3485A0" d="m333.5,39c-0.9,1.4 -2.3,2.6 -4.1,3.7c-3.6,-2.2 -8.6,-3.5 -14.2,-3.5s-10.6,1.4 -14.2,3.5c-1.8,-1.1 -3.2,-2.3 -4.1,-3.7c-0.9,-1.3 -1.3,-2.7 -1.3,-4.1l0,15.6c0,1.5 0.5,2.8 1.3,4.1c2.9,4.2 10,7.2 18.3,7.2s15.5,-3 18.3,-7.2c0.9,-1.3 1.3,-2.7 1.3,-4.1l0,-15.6c0,1.4 -0.5,2.8 -1.3,4.1z"/>
        <path fill="#42C4EC" d="m315.1,23.5c-10.9,0 -19.7,5.1 -19.7,11.4c0,1.5 0.5,2.8 1.3,4.1c2.9,4.2 10,7.2 18.3,7.2s15.5,-3 18.3,-7.2c0.9,-1.3 1.3,-2.7 1.3,-4.1c0.2,-6.3 -8.6,-11.4 -19.5,-11.4z"/>
        <path fill="#3485A0" d="m277,71.6c-0.9,1.4 -2.3,2.6 -4.1,3.7c-3.6,-2.2 -8.6,-3.5 -14.2,-3.5s-10.7,1.3 -14.3,3.5c-1.8,-1.1 -3.2,-2.3 -4.1,-3.7c-0.9,-1.3 -1.3,-2.7 -1.3,-4.1l0,15.6c0,1.5 0.5,2.8 1.3,4.1c2.9,4.2 10,7.2 18.3,7.2s15.5,-3 18.3,-7.2c0.9,-1.3 1.3,-2.7 1.3,-4.1l0,-15.6c0.1,1.4 -0.4,2.8 -1.2,4.1z"/>
        <path fill="#42C4EC" d="m258.6,56.1c-10.8,0 -19.6,5.1 -19.6,11.4c0,1.5 0.5,2.8 1.3,4.1c2.9,4.2 10,7.2 18.3,7.2s15.5,-3 18.3,-7.2c0.9,-1.3 1.3,-2.7 1.3,-4.1c0.1,-6.3 -8.7,-11.4 -19.6,-11.4z"/>
        <path fill="#3485A0" d="m391,72.2c-0.9,1.4 -2.3,2.6 -4.1,3.7c-3.6,-2.2 -8.6,-3.5 -14.2,-3.5s-10.6,1.4 -14.2,3.5c-1.8,-1.1 -3.2,-2.3 -4.1,-3.7c-0.9,-1.3 -1.3,-2.7 -1.3,-4.1l0,15.6c0,1.5 0.5,2.8 1.3,4.1c2.9,4.2 10,7.2 18.3,7.2s15.5,-3 18.3,-7.2c0.9,-1.3 1.3,-2.7 1.3,-4.1l0,-15.6c0.1,1.5 -0.4,2.9 -1.3,4.1z"/>
        <path fill="#42C4EC" d="m372.7,56.8c-10.9,0 -19.7,5.1 -19.7,11.4c0,1.5 0.5,2.8 1.3,4.1c2.9,4.2 10,7.2 18.3,7.2s15.5,-3 18.3,-7.2c0.9,-1.3 1.3,-2.7 1.3,-4.1c0.2,-6.3 -8.6,-11.4 -19.5,-11.4z"/>
        <path fill="#3485A0" d="m334,104.8c-0.9,1.4 -2.3,2.6 -4.1,3.7c-3.6,-2.2 -8.6,-3.5 -14.2,-3.5s-10.6,1.4 -14.2,3.5c-1.8,-1.1 -3.2,-2.3 -4.1,-3.7c-0.9,-1.3 -1.3,-2.7 -1.3,-4.1l0,15.6c0,1.5 0.5,2.8 1.3,4.1c2.9,4.2 10,7.2 18.3,7.2s15.5,-3 18.3,-7.2c0.9,-1.3 1.3,-2.7 1.3,-4.1l0,-15.6c0,1.4 -0.5,2.8 -1.3,4.1z"/>
        <path fill="#42C4EC" d="m315.7,89.3c-10.9,0 -19.7,5.1 -19.7,11.4c0,1.5 0.5,2.8 1.3,4.1c2.9,4.2 10,7.2 18.3,7.2s15.5,-3 18.3,-7.2c0.9,-1.3 1.3,-2.7 1.3,-4.1c0.1,-6.3 -8.7,-11.4 -19.5,-11.4z"/>
    </g>
  
    <g id="cube-small-right">
        <polygon fill="#64A8C5" points="432.0999984741211,132 346,181.6999969482422 432.0999984741211,231.40000915527344 518.1999969482422,181.6999969482422"/>
        <polygon fill="#1B5768" points="432.0999984741211,331.1000061035156 346,281.1000061035156 346,181.6999969482422 432.0999984741211,231.40000915527344"/>
        <polygon fill="#3485A0" points="518.1000061035156,281.1999969482422 432.0999984741211,331.1000061035156 432.0999984741211,231.40000915527344 518.1999969482422,181.6999969482422"/>
        <path fill="#3485A0" d="m450.4,171.3c-0.9,1.4 -2.3,2.6 -4.1,3.7c-3.6,-2.2 -8.6,-3.5 -14.2,-3.5s-10.6,1.4 -14.2,3.5c-1.8,-1.1 -3.2,-2.3 -4.1,-3.7c-0.9,-1.3 -1.3,-2.7 -1.3,-4.1l0,15.6c0,1.5 0.5,2.8 1.3,4.1c2.9,4.2 10,7.2 18.3,7.2s15.5,-3 18.3,-7.2c0.9,-1.3 1.3,-2.7 1.3,-4.1l0,-15.6c0,1.5 -0.4,2.9 -1.3,4.1z"/>
        <path fill="#42C4EC" d="m432.1,155.9c-10.9,0 -19.7,5.1 -19.7,11.4c0,1.5 0.5,2.8 1.3,4.1c2.9,4.2 10,7.2 18.3,7.2s15.5,-3 18.3,-7.2c0.9,-1.3 1.3,-2.7 1.3,-4.1c0.1,-6.3 -8.7,-11.4 -19.5,-11.4z"/>
    </g>

    <g id="cube-small-left">
        <polygon fill="#64A8C5" points="200.0999984741211,132 114,181.6999969482422 200.0999984741211,231.40000915527344 286.1999969482422,181.6999969482422"/>
        <polygon fill="#1B5768" points="200.0999984741211,331.1000061035156 114,281.1000061035156 114,181.6999969482422 200.0999984741211,231.40000915527344"/>
        <polygon fill="#3485A0" points="286.1000061035156,281.1999969482422 200.0999984741211,331.1000061035156 200.0999984741211,231.40000915527344 286.1999969482422,181.6999969482422"/>
        <path fill="#3485A0" d="m218.4,171.3c-0.9,1.4 -2.3,2.6 -4.1,3.7c-3.6,-2.2 -8.6,-3.5 -14.2,-3.5s-10.6,1.4 -14.2,3.5c-1.8,-1.1 -3.2,-2.3 -4.1,-3.7c-0.9,-1.3 -1.3,-2.7 -1.3,-4.1l0,15.6c0,1.5 0.5,2.8 1.3,4.1c2.9,4.2 10,7.2 18.3,7.2s15.5,-3 18.3,-7.2c0.9,-1.3 1.3,-2.7 1.3,-4.1l0,-15.6c0,1.5 -0.4,2.9 -1.3,4.1z"/>
        <path fill="#42C4EC" d="m200.1,155.9c-10.9,0 -19.7,5.1 -19.7,11.4c0,1.5 0.5,2.8 1.3,4.1c2.9,4.2 10,7.2 18.3,7.2s15.5,-3 18.3,-7.2c0.9,-1.3 1.3,-2.7 1.3,-4.1c0.1,-6.3 -8.7,-11.4 -19.5,-11.4z"/>
    </g>
 </g>
</svg>